HIERARCHY
ROOT Hips
{
	OFFSET 0.000000 0.794594 0.001814
	CHANNELS 6 Xposition Yposition Zposition Zrotation Xrotation Yrotation
	JOINT Spine
	{
		OFFSET -0.000000 0.051920 0.010783
		CHANNELS 3 Zrotation Xrotation Yrotation
		JOINT Chest
		{
			OFFSET 0.000000 0.111800 0.002643
			CHANNELS 3 Zrotation Xrotation Yrotation
			JOINT UpperChest
			{
				OFFSET 0.000011 0.124994 0.000757
				CHANNELS 3 Zrotation Xrotation Yrotation
				JOINT Neck
				{
					OFFSET 0.000112 0.117645 -0.020286
					CHANNELS 3 Zrotation Xrotation Yrotation
					JOINT Head
					{
						OFFSET 0.000009 0.074358 -0.000161
						CHANNELS 3 Zrotation Xrotation Yrotation
						JOINT LeftEye
						{
							OFFSET 0.019846 0.051735 0.040589
							CHANNELS 3 Zrotation Xrotation Yrotation
							End Site
							{
								OFFSET -0.000199 0.054090 0.042333
							}
						}
						JOINT RightEye
						{
							OFFSET -0.020226 0.051740 0.040395
							CHANNELS 3 Zrotation Xrotation Yrotation
							End Site
							{
								OFFSET -0.000199 0.054090 0.042333
							}
						}
					}
				}
				JOINT LeftShoulder
				{
					OFFSET 0.022481 0.089795 -0.017340
					CHANNELS 3 Zrotation Xrotation Yrotation
					JOINT LeftUpperArm
					{
						OFFSET 0.087730 -0.000010 0.000425
						CHANNELS 3 Zrotation Xrotation Yrotation
						JOINT LeftLowerArm
						{
							OFFSET 0.210364 0.001461 0.000713
							CHANNELS 3 Zrotation Xrotation Yrotation
							JOINT LeftHand
							{
								OFFSET 0.205444 0.001377 0.000711
								CHANNELS 3 Zrotation Xrotation Yrotation
								JOINT LeftIndexProximal
								{
									OFFSET 0.064499 0.001525 0.020305
									CHANNELS 3 Zrotation Xrotation Yrotation
									JOINT LeftIndexIntermediate
									{
										OFFSET 0.033222 0.000012 0.000212
										CHANNELS 3 Zrotation Xrotation Yrotation
										JOINT LeftIndexDistal
										{
											OFFSET 0.020455 0.000007 0.000130
											CHANNELS 3 Zrotation Xrotation Yrotation
											End Site
											{
												OFFSET 0.020455 0.000007 0.000130
											}
										}
									}
								}
								JOINT LeftLittleProximal
								{
									OFFSET 0.062854 -0.001936 -0.027845
									CHANNELS 3 Zrotation Xrotation Yrotation
									JOINT LeftLittleIntermediate
									{
										OFFSET 0.031399 0.000011 0.000200
										CHANNELS 3 Zrotation Xrotation Yrotation
										JOINT LeftLittleDistal
										{
											OFFSET 0.018096 0.000006 0.000115
											CHANNELS 3 Zrotation Xrotation Yrotation
											End Site
											{
												OFFSET 0.018096 0.000006 0.000115
											}
										}
									}
								}
								JOINT LeftMiddleProximal
								{
									OFFSET 0.066609 0.003801 0.003549
									CHANNELS 3 Zrotation Xrotation Yrotation
									JOINT LeftMiddleIntermediate
									{
										OFFSET 0.037005 0.000013 0.000236
										CHANNELS 3 Zrotation Xrotation Yrotation
										JOINT LeftMiddleDistal
										{
											OFFSET 0.022829 0.000008 0.000145
											CHANNELS 3 Zrotation Xrotation Yrotation
											End Site
											{
												OFFSET 0.022829 0.000008 0.000145
											}
										}
									}
								}
								JOINT LeftRingProximal
								{
									OFFSET 0.066900 0.003343 -0.012193
									CHANNELS 3 Zrotation Xrotation Yrotation
									JOINT LeftRingIntermediate
									{
										OFFSET 0.034327 0.000012 0.000219
										CHANNELS 3 Zrotation Xrotation Yrotation
										JOINT LeftRingDistal
										{
											OFFSET 0.019811 0.000007 0.000126
											CHANNELS 3 Zrotation Xrotation Yrotation
											End Site
											{
												OFFSET 0.019811 0.000007 0.000126
											}
										}
									}
								}
								JOINT LeftThumbProximal
								{
									OFFSET 0.001848 -0.006641 0.017858
									CHANNELS 3 Zrotation Xrotation Yrotation
									JOINT LeftThumbIntermediate
									{
										OFFSET 0.030326 -0.003605 0.035110
										CHANNELS 3 Zrotation Xrotation Yrotation
										JOINT LeftThumbDistal
										{
											OFFSET 0.019149 -0.004135 0.020870
											CHANNELS 3 Zrotation Xrotation Yrotation
											End Site
											{
												OFFSET 0.019149 -0.004134 0.020871
											}
										}
									}
								}
							}
						}
					}
				}
				JOINT RightShoulder
				{
					OFFSET -0.022291 0.089803 -0.017557
					CHANNELS 3 Zrotation Xrotation Yrotation
					JOINT RightUpperArm
					{
						OFFSET -0.087729 0.000010 -0.000425
						CHANNELS 3 Zrotation Xrotation Yrotation
						JOINT RightLowerArm
						{
							OFFSET -0.210401 0.000107 -0.000861
							CHANNELS 3 Zrotation Xrotation Yrotation
							JOINT RightHand
							{
								OFFSET -0.205447 0.000040 -0.000840
								CHANNELS 3 Zrotation Xrotation Yrotation
								JOINT RightIndexProximal
								{
									OFFSET -0.064690 0.001511 0.019688
									CHANNELS 3 Zrotation Xrotation Yrotation
									JOINT RightIndexIntermediate
									{
										OFFSET -0.033222 0.000005 -0.000106
										CHANNELS 3 Zrotation Xrotation Yrotation
										JOINT RightIndexDistal
										{
											OFFSET -0.020455 0.000003 -0.000065
											CHANNELS 3 Zrotation Xrotation Yrotation
											End Site
											{
												OFFSET -0.020455 0.000003 -0.000065
											}
										}
									}
								}
								JOINT RightLittleProximal
								{
									OFFSET -0.062585 -0.001949 -0.028444
									CHANNELS 3 Zrotation Xrotation Yrotation
									JOINT RightLittleIntermediate
									{
										OFFSET -0.031399 0.000005 -0.000100
										CHANNELS 3 Zrotation Xrotation Yrotation
										JOINT RightLittleDistal
										{
											OFFSET -0.018096 0.000003 -0.000057
											CHANNELS 3 Zrotation Xrotation Yrotation
											End Site
											{
												OFFSET -0.018096 0.000003 -0.000057
											}
										}
									}
								}
								JOINT RightMiddleProximal
								{
									OFFSET -0.066640 0.003787 0.002913
									CHANNELS 3 Zrotation Xrotation Yrotation
									JOINT RightMiddleIntermediate
									{
										OFFSET -0.037006 0.000005 -0.000118
										CHANNELS 3 Zrotation Xrotation Yrotation
										JOINT RightMiddleDistal
										{
											OFFSET -0.022829 0.000003 -0.000072
											CHANNELS 3 Zrotation Xrotation Yrotation
											End Site
											{
												OFFSET -0.022829 0.000003 -0.000072
											}
										}
									}
								}
								JOINT RightRingProximal
								{
									OFFSET -0.066782 0.003329 -0.012831
									CHANNELS 3 Zrotation Xrotation Yrotation
									JOINT RightRingIntermediate
									{
										OFFSET -0.034327 0.000005 -0.000109
										CHANNELS 3 Zrotation Xrotation Yrotation
										JOINT RightRingDistal
										{
											OFFSET -0.019810 0.000003 -0.000063
											CHANNELS 3 Zrotation Xrotation Yrotation
											End Site
											{
												OFFSET -0.019810 0.000003 -0.000063
											}
										}
									}
								}
								JOINT RightThumbProximal
								{
									OFFSET -0.002017 -0.006641 0.017839
									CHANNELS 3 Zrotation Xrotation Yrotation
									JOINT RightThumbIntermediate
									{
										OFFSET -0.032510 -0.005699 0.032803
										CHANNELS 3 Zrotation Xrotation Yrotation
										JOINT RightThumbDistal
										{
											OFFSET -0.020784 -0.005081 0.019013
											CHANNELS 3 Zrotation Xrotation Yrotation
											End Site
											{
												OFFSET -0.020784 -0.005081 0.019013
											}
										}
									}
								}
							}
						}
					}
				}
			}
		}
	}
	JOINT LeftUpperLeg
	{
		OFFSET 0.077122 -0.039594 -0.005714
		CHANNELS 3 Zrotation Xrotation Yrotation
		JOINT LeftLowerLeg
		{
			OFFSET 0.000000 -0.343087 0.003694
			CHANNELS 3 Zrotation Xrotation Yrotation
			JOINT LeftFoot
			{
				OFFSET 0.000000 -0.401029 -0.031329
				CHANNELS 3 Zrotation Xrotation Yrotation
				JOINT LeftToes
				{
					OFFSET 0.000000 -0.001594 0.127952
					CHANNELS 3 Zrotation Xrotation Yrotation
					End Site
					{
						OFFSET -0.000000 -0.001594 0.127952
					}
				}
			}
		}
	}
	JOINT RightUpperLeg
	{
		OFFSET -0.077122 -0.039594 -0.005714
		CHANNELS 3 Zrotation Xrotation Yrotation
		JOINT RightLowerLeg
		{
			OFFSET -0.000000 -0.343087 0.003695
			CHANNELS 3 Zrotation Xrotation Yrotation
			JOINT RightFoot
			{
				OFFSET 0.000000 -0.401029 -0.031326
				CHANNELS 3 Zrotation Xrotation Yrotation
				JOINT RightToes
				{
					OFFSET 0.000000 -0.001593 0.127952
					CHANNELS 3 Zrotation Xrotation Yrotation
					End Site
					{
						OFFSET -0.000000 -0.001593 0.127952
					}
				}
			}
		}
	}
}
MOTION
Frames: 7
Frame Time: 0.016667
0.000000 0.794594 0.001814 -0.000000 0.000000 -0.000000 0.000000 -0.000000 0.000000 0.000000 0.000000 0.000000 -0.000000 -0.000000 -0.000000 -0.000000 -0.000000 -0.000000 -0.000000 0.000001 -0.000000 0.000000 -0.000001 -0.000000 -0.000000 -0.000003 -0.000000 -0.000000 -0.000000 -0.000000 -0.000000 0.000003 0.000000 0.000000 -0.000001 -0.000000 0.000000 0.000002 -0.000000 0.000000 0.000000 -0.000000 0.000000 0.000000 -0.000000 0.000000 0.000000 -0.000000 0.000000 0.000000 -0.000000 0.000000 -0.000000 -0.000000 0.000000 0.000000 -0.000000 0.000000 0.000000 -0.000000 0.000000 0.000000 -0.000000 0.000000 0.000000 -0.000000 0.000000 0.000000 -0.000000 0.000000 -0.000000 -0.000000 0.000000 0.000000 -0.000000 -0.000001 0.000001 0.000000 -0.000004 -0.000003 0.000000 -0.000002 -0.000002 -0.000001 -0.000000 -0.000001 -0.000000 -0.000000 -0.000000 0.000000 0.000000 0.000000 0.000000 -0.000000 0.000000 0.000000 0.000000 0.000000 -0.000000 0.000000 0.000000 0.000000 0.000000 0.000000 0.000000 0.000000 0.000000 -0.000000 0.000000 -0.000000 0.000000 0.000000 -0.000000 0.000000 0.000000 0.000000 -0.000000 0.000000 -0.000000 0.000000 -0.000000 -0.000000 0.000000 0.000000 -0.000000 0.000000 0.000000 0.000000 -0.000000 0.000000 0.000000 0.000000 -0.000000 -0.000001 0.000005 -0.000000 0.000000 -0.000000 0.000001 -0.000001 0.000004 0.000000 -0.000000 0.000000 -0.000000 -0.000000 0.000000 0.000000 -0.000000 -0.000000 -0.000000 -0.000000 0.000000 -0.000000 0.000000 0.000000 -0.000000 -0.000000 0.000000 -0.000000 -0.000000 -0.000000 -0.000000 -0.000000 -0.000000 
-0.002301 0.791763 0.015186 -1.414388 -0.044969 -7.709754 -1.599501 0.878731 -0.284296 3.590966 -3.844948 -0.042297 -0.103852 -3.584396 0.067445 -4.959667 -2.622592 -1.608984 -10.284593 8.906869 5.498217 0.000066 0.000020 0.000018 0.000065 0.000016 0.000018 -4.923508 -0.059647 -0.687546 -24.003853 57.180551 -49.866409 5.586151 1.668804 -71.252062 -13.078028 -4.927980 -8.623683 -14.449354 -2.316586 4.063881 -26.368333 -0.480762 -4.658177 -26.368719 -0.480759 -4.658110 -16.783069 4.100124 -12.826018 -26.484557 0.375489 -3.716013 -26.485489 0.375524 -3.715974 -17.976093 -0.600445 -0.881727 -26.484999 0.375570 -3.716195 -26.485378 0.375587 -3.716167 -17.665378 1.095763 -5.108576 -26.485109 0.375618 -3.716221 -26.485425 0.375577 -3.716152 10.247493 -6.352291 19.141521 -9.602618 4.581040 19.616030 -7.502195 3.546073 16.061675 3.472170 -0.061161 0.504262 36.718110 61.156947 44.955581 -1.095515 -0.352794 30.502942 4.537314 30.182910 10.259048 31.942343 -2.884159 0.497895 31.579042 -0.318597 5.576487 31.579766 -0.318586 5.576499 31.118373 4.156784 9.335074 31.713364 0.652159 4.407463 31.713989 0.652159 4.407439 31.915179 -1.334973 1.655291 31.713593 0.652211 4.407663 31.713941 0.652209 4.407650 31.713630 0.651963 4.407367 31.713661 0.652222 4.407655 31.713945 0.652172 4.407673 -6.913650 -4.802220 -13.871377 4.856159 1.366875 -23.927831 3.634762 0.788377 -19.580686 0.519857 -6.760926 -6.647634 0.008624 17.447553 0.025585 -4.571156 -7.981237 2.023511 -0.000000 -0.000000 0.000000 1.988835 -0.383366 26.147346 -0.002438 12.817256 -0.018062 6.130604 -5.006997 -2.380219 -0.000000 -0.000000 -0.000001 
-0.002323 0.791726 0.015179 -1.416641 -0.039747 -7.681270 -1.598784 0.878841 -0.281032 3.583166 -3.839642 -0.042504 -0.104224 -3.584382 0.067847 -4.959571 -2.622635 -1.608957 -10.237122 8.953641 5.496983 -0.000021 0.000055 -0.000052 -0.000022 0.000054 -0.000052 -4.907480 -0.059555 -0.685311 -23.318653 55.963486 -50.588687 4.276005 1.717858 -70.712102 -13.090604 -5.162017 -8.687256 -14.449354 -2.316602 4.063890 -26.368306 -0.480738 -4.658171 -26.368714 -0.480781 -4.658133 -16.783074 4.100125 -12.825990 -26.484547 0.375502 -3.716040 -26.485477 0.375519 -3.715964 -17.976091 -0.600438 -0.881714 -26.484972 0.375571 -3.716212 -26.485397 0.375589 -3.716135 -17.665374 1.095767 -5.108570 -26.485093 0.375593 -3.716211 -26.485416 0.375587 -3.716165 10.247499 -6.352279 19.141549 -9.602618 4.581032 19.616044 -7.502206 3.546078 16.061673 3.447520 -0.061235 0.498749 37.507318 59.979996 44.985098 -1.064890 -0.326193 29.463640 4.690537 30.297275 11.446098 31.836543 -2.862606 0.509114 31.450064 -0.328130 5.557758 31.454876 -0.327897 5.557905 31.059510 4.151838 9.296017 31.636504 0.644188 4.393916 31.637122 0.644170 4.393907 31.823163 -1.333262 1.647706 31.611936 0.642299 4.394410 31.612257 0.642269 4.394370 31.634168 0.636078 4.368311 31.625705 0.643327 4.394248 31.626016 0.643335 4.394250 -6.868403 -4.777327 -13.855734 4.839920 1.368096 -23.849752 3.622764 0.789405 -19.516868 0.520312 -6.751253 -6.674065 0.012443 17.443606 0.025407 -4.573885 -7.991829 2.019883 -0.000000 -0.000000 0.000000 2.088321 -0.574979 26.123054 -0.002148 13.284825 -0.019055 6.141630 -4.942441 -2.354676 -0.000000 -0.000000 -0.000001 
-0.002401 0.791693 0.015171 -1.424790 -0.034162 -7.598871 -1.596903 0.877339 -0.270320 3.560126 -3.824759 -0.042677 -0.104442 -3.584553 0.068783 -4.959136 -2.622434 -1.608896 -10.099907 9.095454 5.494999 0.000039 0.000067 0.000005 0.000039 0.000064 0.000005 -4.860787 -0.059259 -0.678768 -23.799487 54.645615 -50.264745 3.219488 1.566684 -69.353836 -13.061007 -5.401723 -8.748824 -14.449357 -2.316585 4.063882 -26.368312 -0.480744 -4.658172 -26.368707 -0.480766 -4.658131 -16.783067 4.100134 -12.826011 -26.484550 0.375481 -3.716022 -26.485450 0.375520 -3.715977 -17.976088 -0.600456 -0.881726 -26.484984 0.375575 -3.716203 -26.485384 0.375583 -3.716162 -17.665384 1.095767 -5.108581 -26.485078 0.375617 -3.716210 -26.485402 0.375568 -3.716181 10.247483 -6.352267 19.141532 -9.602601 4.581039 19.616006 -7.502195 3.546077 16.061675 3.375798 -0.061469 0.482727 38.928612 59.037867 41.485278 -1.199936 -0.456770 34.275211 5.423702 29.468390 10.561801 31.528700 -2.800187 0.542241 31.074758 -0.355441 5.503133 31.091602 -0.354528 5.503662 30.888325 4.137926 9.182384 31.412870 0.621134 4.354445 31.413498 0.621144 4.354440 31.555477 -1.328119 1.625743 31.316137 0.613644 4.355690 31.316496 0.613650 4.355682 31.402911 0.590514 4.254549 31.369881 0.617813 4.355114 31.370202 0.617792 4.355116 -6.736908 -4.704924 -13.810341 4.792663 1.371463 -23.622614 3.587810 0.792255 -19.331208 0.525430 -6.885169 -6.748305 0.001396 17.580904 0.025140 -4.582640 -8.001140 2.008597 0.000000 0.000000 0.000000 2.190774 -0.748600 26.053639 -0.000234 13.717593 -0.019874 6.145000 -4.870362 -2.341284 0.000001 0.000001 -0.000001 
-0.002529 0.791663 0.015162 -1.437002 -0.030137 -7.465007 -1.593849 0.875155 -0.252739 3.522926 -3.800754 -0.042762 -0.104875 -3.584944 0.070067 -4.958303 -2.622205 -1.608737 -9.879637 9.316539 5.491421 -0.000033 0.000127 -0.000043 -0.000034 0.000124 -0.000043 -4.785639 -0.058778 -0.668249 -24.983678 53.306532 -49.332708 2.394462 1.261568 -67.343029 -12.990805 -5.647004 -8.808069 -14.449347 -2.316583 4.063892 -26.368282 -0.480772 -4.658195 -26.368676 -0.480785 -4.658119 -16.783061 4.100127 -12.825998 -26.484508 0.375475 -3.716002 -26.485431 0.375514 -3.716000 -17.976069 -0.600463 -0.881707 -26.484952 0.375584 -3.716187 -26.485360 0.375587 -3.716161 -17.665367 1.095775 -5.108562 -26.485071 0.375611 -3.716192 -26.485372 0.375584 -3.716174 10.247502 -6.352268 19.141554 -9.602614 4.581028 19.615998 -7.502178 3.546058 16.061668 3.260365 -0.061794 0.456940 40.976849 57.530417 36.894599 -1.345246 -0.647783 40.388073 4.907194 27.962257 10.471658 31.033180 -2.700632 0.596966 30.470724 -0.398055 5.414786 30.506866 -0.396159 5.415997 30.612942 4.117024 8.999505 31.052956 0.584738 4.290699 31.053581 0.584727 4.290695 31.124694 -1.319490 1.590556 30.840097 0.568453 4.293049 30.840391 0.568439 4.293020 31.030711 0.519084 4.070830 30.958106 0.577494 4.291873 30.958416 0.577440 4.291878 -6.525454 -4.588044 -13.737682 4.716531 1.376221 -23.257042 3.531516 0.796451 -19.032380 0.534199 -6.872761 -6.868790 0.007444 17.571568 0.025163 -4.596755 -8.007782 1.990644 0.000000 -0.000000 -0.000000 2.295167 -0.894296 25.940727 -0.002319 14.112244 -0.020611 6.141486 -4.794298 -2.338853 0.000000 -0.000000 0.000001 
-0.002705 0.791636 0.015155 -1.453547 -0.027480 -7.282725 -1.589941 0.872451 -0.228711 3.472529 -3.768328 -0.042658 -0.105471 -3.585460 0.071752 -4.957321 -2.621718 -1.608546 -9.580518 9.599746 5.484611 -0.000015 -0.000010 -0.000041 -0.000016 -0.000013 -0.000041 -4.684264 -0.058093 -0.654056 -26.474701 52.012143 -48.149722 1.776187 0.847869 -64.863848 -12.881411 -5.897642 -8.864404 -14.449356 -2.316589 4.063902 -26.368290 -0.480739 -4.658172 -26.368644 -0.480766 -4.658118 -16.783088 4.100116 -12.825982 -26.484494 0.375506 -3.716007 -26.485392 0.375509 -3.715981 -17.976073 -0.600455 -0.881701 -26.484970 0.375561 -3.716202 -26.485331 0.375577 -3.716147 -17.665374 1.095760 -5.108562 -26.485059 0.375614 -3.716206 -26.485334 0.375573 -3.716175 10.247478 -6.352264 19.141556 -9.602595 4.581031 19.615982 -7.502178 3.546070 16.061639 3.104583 -0.062131 0.422121 43.378354 55.516935 31.962560 -1.461963 -0.874417 46.820062 4.719587 26.074319 10.422817 30.364241 -2.568181 0.673503 29.655452 -0.452933 5.294741 29.717661 -0.449809 5.296883 30.241578 4.091696 8.752624 30.567180 0.536909 4.204248 30.567781 0.536914 4.204199 30.543336 -1.307144 1.543426 30.197547 0.509177 4.207829 30.197820 0.509150 4.207807 30.528275 0.426416 3.821722 30.402360 0.524535 4.205958 30.402688 0.524543 4.205956 -6.240495 -4.429719 -13.640399 4.613641 1.381325 -22.763692 3.455456 0.801298 -18.629114 0.545541 -6.985551 -7.032569 -0.000205 17.685766 0.025122 -4.615946 -8.012305 1.966295 0.000000 0.000000 -0.000002 2.399963 -1.026705 25.786722 -0.001018 14.478937 -0.021148 6.131582 -4.712191 -2.347098 -0.000000 -0.000001 -0.000000 
-0.002926 0.791612 0.015148 -1.474771 -0.026056 -7.055405 -1.585216 0.869339 -0.198484 3.409890 -3.728168 -0.042275 -0.106170 -3.586025 0.073882 -4.956074 -2.621273 -1.608327 -9.206796 9.927700 5.473231 -0.000045 -0.000097 -0.000035 -0.000045 -0.000098 -0.000035 -4.558782 -0.057224 -0.636503 -27.976153 50.821170 -46.979598 1.333609 0.386163 -62.106808 -12.734363 -6.153472 -8.917415 -14.449371 -2.316611 4.063901 -26.368271 -0.480722 -4.658184 -26.368627 -0.480771 -4.658117 -16.783090 4.100118 -12.825962 -26.484468 0.375502 -3.716008 -26.485370 0.375516 -3.715976 -17.976088 -0.600443 -0.881689 -26.484950 0.375578 -3.716187 -26.485295 0.375600 -3.716179 -17.665400 1.095763 -5.108549 -26.485030 0.375601 -3.716209 -26.485312 0.375571 -3.716157 10.247461 -6.352270 19.141576 -9.602582 4.581025 19.615940 -7.502171 3.546066 16.061642 2.911832 -0.062395 0.379043 45.902768 53.083609 27.177236 -1.536196 -1.112746 53.027803 4.744095 23.824465 10.537118 29.536193 -2.407336 0.772456 28.646476 -0.516692 5.144961 28.740917 -0.512163 5.148310 29.782470 4.064896 8.447119 29.965983 0.479842 4.096554 29.966570 0.479850 4.096565 29.824011 -1.290754 1.485700 29.402349 0.438557 4.101295 29.402592 0.438550 4.101250 29.906407 0.317699 3.511670 29.714547 0.461448 4.098823 29.714871 0.461421 4.098840 -5.888502 -4.232849 -13.521290 4.486148 1.385630 -22.153135 3.361205 0.805980 -18.130064 0.560583 -7.068028 -7.236576 -0.003807 17.769878 0.025190 -4.640076 -8.015774 1.935714 0.000000 -0.000000 -0.000000 2.506989 -1.135961 25.594640 -0.002477 14.811793 -0.021628 6.115754 -4.626423 -2.365260 0.000001 -0.000001 -0.000001 
